<?xml version="1.0" encoding="UTF-8"?><svg id="a" xmlns="http://www.w3.org/2000/svg" viewBox="0 0 145.3 140.39"><defs><style>.b{fill:#f3ac24;}.c{fill:#f9f9f9;}.d{fill:#050404;}.e{fill:#f4f4f4;}.f{fill:#fcfcfc;}.g{fill:#e9a423;}.h{fill:#fafafa;}</style></defs><path class="d" d="M54.59,14.42c-2.45-2.6-4.91-5.21-7.21-7.65,2.14-2.36,4.1-4.54,6.13-6.77,6.08,4.29,9.36,10.96,18.91,11.01,9.59,.05,12.83-6.52,18.7-10.88,1.92,2.28,3.8,4.51,6.11,7.26-2.13,1.69-4.84,3.84-7.98,6.33,1.95,1.75,2.94,2.76,4.04,3.61,8.28,6.43,12.86,14.86,14.13,25.26,.21,1.75,1.34,3.67,2.61,4.97,8.87,9.03,17.87,17.92,26.85,26.84,7.3,7.27,10.27,15.88,7.28,25.89-2.91,9.73-9.73,15.46-19.68,17.51-6.76,1.4-12.71-.65-18.31-4.19-1.53-.96-2.93-2.12-3.71-2.7-5.53,6.79-10.15,14.29-16.46,19.87-14.85,13.12-12.6,12.53-27.34-.14-6.24-5.37-10.65-12.87-16.18-19.76-4.73,3.73-10.62,6.82-17.97,6.47-10.03-.48-17.26-5.12-21.62-13.96-4.4-8.92-3.93-18.11,2.57-25.54,8.52-9.74,18.09-18.56,27.28-27.71,2.58-2.57,4.66-4.97,5.15-9.03,1.27-10.69,6.51-19.25,15.67-25.22,.38-.25,.56-.78,1.04-1.48Zm42.92,40.91c1.15-12.95-.27-24.4-12.15-31.48-9.3-5.55-18.81-5.07-27.62,1.13-10.67,7.51-11.4,18.56-10.07,30.36h49.84Zm9.71,6.2l.67-1.08c-.09,.94-.23,1.89-.27,2.83-.55,11.6-1.1,23.19-1.61,34.79-.03,.78,.01,1.67,.36,2.33,3.76,7.04,14.22,9.78,21.36,5.66,7.17-4.15,10.65-14.56,5.23-20.66-7.74-8.7-17.08-15.98-25.74-23.87Zm-69.94-.98l-1.2-.48c-2.06,2.14-4.1,4.31-6.2,6.42-5.16,5.18-10.44,10.23-15.5,15.5-6.56,6.83-6.01,17.17,1.05,22.81,7.17,5.73,17.87,3.86,23-4.11,.51-.8,.45-2.09,.36-3.13-.45-5.6-1.23-11.19-1.44-16.8-.26-6.73-.06-13.47-.06-20.21Zm15.1,45.38c4.69,10.18,11.15,17.75,19.85,23.33,9.14-5.33,17.95-15.87,19.57-23.33H52.38Zm-5.35-20.19c.52,3.61,.96,6.65,1.46,10.13,2.23,0,4.03,0,5.83,0,11.8,0,23.59,0,35.39,0,7.4,0,9.16-2.52,7.05-10.13H47.02Zm.56-10.57h49.75v-9.44H47.59v9.44Z"/><path class="f" d="M97.51,55.33H47.67c-1.33-11.79-.6-22.85,10.07-30.36,8.81-6.2,18.32-6.67,27.62-1.13,11.88,7.08,13.29,18.53,12.15,31.48Z"/><path class="c" d="M107.22,61.53c8.66,7.89,18,15.17,25.74,23.87,5.42,6.09,1.94,16.51-5.23,20.66-7.14,4.12-17.6,1.38-21.36-5.66-.35-.66-.4-1.55-.36-2.33,.51-11.6,1.06-23.2,1.61-34.79,.04-.95,.18-1.89,.27-2.83l-.67,1.08Z"/><path class="h" d="M37.28,60.55c0,6.74-.2,13.48,.06,20.21,.21,5.61,.99,11.2,1.44,16.8,.08,1.04,.15,2.33-.36,3.13-5.13,7.97-15.83,9.84-23,4.11-7.06-5.64-7.61-15.98-1.05-22.81,5.06-5.27,10.34-10.33,15.5-15.5,2.1-2.11,4.13-4.28,6.2-6.42l1.2,.48Z"/><path class="e" d="M52.38,105.94c13.61,0,26.52,0,39.43,0-1.63,7.47-10.43,18.01-19.57,23.34-8.7-5.58-15.16-13.15-19.85-23.33Z"/><path class="g" d="M47.02,85.74h49.73c2.11,7.61,.35,10.13-7.05,10.13-11.8,0-23.59,0-35.39,0-1.8,0-3.6,0-5.83,0-.5-3.47-.94-6.51-1.46-10.13Z"/><path class="b" d="M47.59,75.18v-9.44h49.75v9.44H47.59Z"/></svg>