<?xml version="1.0" encoding="UTF-8"?><svg id="a" xmlns="http://www.w3.org/2000/svg" xmlns:xlink="http://www.w3.org/1999/xlink" viewBox="0 0 729 676"><defs><style>.c{fill:none;}.d{fill:#ffecb6;}.e{fill:#f4e9cb;}.f{fill:#fdf9dc;}.g{clip-path:url(#b);}</style><clipPath id="b"><rect class="c" width="729" height="676"/></clipPath></defs><g class="g"><g><g><polygon class="f" points="105.01 70.76 132.99 87.13 161.14 71.05 161.3 38.59 133.32 22.23 105.17 38.31 105.01 70.76"/><polygon class="f" points="39.14 70.76 67.12 87.13 95.27 71.05 95.44 38.59 67.45 22.23 39.3 38.31 39.14 70.76"/><polygon class="f" points="500.21 70.76 528.2 87.13 556.35 71.05 556.51 38.59 528.53 22.23 500.38 38.31 500.21 70.76"/><polygon class="f" points="434.35 70.76 462.33 87.13 490.48 71.05 490.64 38.59 462.66 22.23 434.51 38.31 434.35 70.76"/><polygon class="f" points="368.48 70.76 396.46 87.13 424.61 71.05 424.78 38.59 396.79 22.23 368.64 38.31 368.48 70.76"/><polygon class="f" points="752.92 150.6 724.94 134.24 696.79 150.32 696.62 182.77 724.61 199.14 752.76 183.06 752.92 150.6"/><polygon class="f" points="499.78 150.32 499.62 182.77 527.6 199.14 555.75 183.06 555.92 150.6 527.93 134.24 499.78 150.32"/><polygon class="f" points="105.77 150.32 105.61 182.77 133.59 199.14 161.74 183.06 161.9 150.6 133.92 134.24 105.77 150.32"/><polygon class="f" points="40.1 150.32 39.94 182.77 67.92 199.14 96.07 183.06 96.23 150.6 68.25 134.24 40.1 150.32"/><polygon class="f" points="402.76 94.56 402.59 127.02 430.57 143.39 458.72 127.3 458.89 94.85 430.9 78.48 402.76 94.56"/><polygon class="f" points="337.19 94.56 337.03 127.02 365.01 143.39 393.16 127.3 393.33 94.85 365.34 78.48 337.19 94.56"/><polygon class="f" points="140.51 94.56 140.34 127.02 168.33 143.39 196.48 127.3 196.64 94.85 168.66 78.48 140.51 94.56"/><polygon class="f" points="38.26 522.06 66.41 538.14 94.4 521.77 94.23 489.32 66.08 473.24 38.1 489.6 38.26 522.06"/><polygon class="f" points="527.49 538.14 555.47 521.77 555.31 489.32 527.16 473.24 499.17 489.6 499.34 522.06 527.49 538.14"/><polygon class="f" points="461.62 538.14 489.6 521.77 489.44 489.32 461.29 473.24 433.31 489.6 433.47 522.06 461.62 538.14"/><polygon class="f" points="725.09 538.14 753.08 521.77 752.91 489.32 724.76 473.24 696.78 489.6 696.94 522.06 725.09 538.14"/><polygon class="f" points="658.03 426.13 686.01 409.76 685.85 377.31 657.7 361.23 629.72 377.59 629.88 410.05 658.03 426.13"/><polygon class="f" points="461.02 426.13 489.01 409.76 488.84 377.31 460.69 361.23 432.71 377.59 432.88 410.05 461.02 426.13"/><polygon class="f" points="38.86 410.05 67.01 426.13 95 409.76 94.83 377.31 66.68 361.23 38.7 377.59 38.86 410.05"/><polygon class="f" points="391.98 465.51 391.81 433.06 363.67 416.98 335.68 433.35 335.85 465.8 364 481.88 391.98 465.51"/><polygon class="f" points="326.42 465.51 326.25 433.06 298.1 416.98 270.12 433.35 270.29 465.8 298.43 481.88 326.42 465.51"/><polygon class="f" points="73.6 465.8 101.75 481.88 129.73 465.51 129.57 433.06 101.42 416.98 73.44 433.35 73.6 465.8"/><polygon class="f" points="719.79 465.51 719.62 433.06 691.47 416.98 663.49 433.35 663.66 465.8 691.8 481.88 719.79 465.51"/><polygon class="f" points="71.22 353.06 99.37 369.14 127.35 352.77 127.18 320.32 99.04 304.24 71.05 320.6 71.22 353.06"/><polygon class="f" points="61.48 352.77 61.32 320.32 33.17 304.24 5.18 320.6 5.35 353.06 33.5 369.14 61.48 352.77"/><polygon class="f" points="522.56 352.77 522.39 320.32 494.24 304.24 466.26 320.6 466.43 353.06 494.57 369.14 522.56 352.77"/><polygon class="f" points="456.69 352.77 456.52 320.32 428.38 304.24 400.39 320.6 400.56 353.06 428.71 369.14 456.69 352.77"/><polygon class="f" points="390.82 352.77 390.66 320.32 362.51 304.24 334.52 320.6 334.69 353.06 362.84 369.14 390.82 352.77"/><polygon class="f" points="230.97 192.23 202.99 208.59 203.16 241.05 231.3 257.13 259.29 240.76 259.12 208.31 230.97 192.23"/><polygon class="f" points="718.8 208.31 690.65 192.23 662.67 208.59 662.84 241.05 690.98 257.13 718.97 240.76 718.8 208.31"/><polygon class="f" points="493.65 192.23 465.66 208.59 465.83 241.05 493.98 257.13 521.96 240.76 521.8 208.31 493.65 192.23"/><polygon class="f" points="99.64 192.23 71.65 208.59 71.82 241.05 99.97 257.13 127.95 240.76 127.78 208.31 99.64 192.23"/><polygon class="f" points="62.28 240.76 62.12 208.31 33.97 192.23 5.98 208.59 6.15 241.05 34.3 257.13 62.28 240.76"/><polygon class="f" points="368.64 264.35 368.8 296.8 396.95 312.88 424.93 296.51 424.77 264.06 396.62 247.98 368.64 264.35"/><polygon class="f" points="303.08 264.35 303.24 296.8 331.39 312.88 359.37 296.51 359.21 264.06 331.06 247.98 303.08 264.35"/><polygon class="f" points="106.39 264.35 106.56 296.8 134.7 312.88 162.69 296.51 162.52 264.06 134.37 247.98 106.39 264.35"/><polygon class="f" points="752.58 264.06 724.43 247.98 696.44 264.35 696.61 296.8 724.76 312.88 752.74 296.51 752.58 264.06"/><polygon class="f" points="559.32 192.23 531.33 208.59 531.5 241.05 559.65 257.13 587.63 240.76 587.47 208.31 559.32 192.23"/><polygon class="f" points="127.18 657.32 99.04 641.24 71.05 657.6 71.22 690.06 99.37 706.14 127.35 689.77 127.18 657.32"/><polygon class="f" points="61.32 657.32 33.17 641.24 5.18 657.6 5.35 690.06 33.5 706.14 61.48 689.77 61.32 657.32"/><polygon class="f" points="522.39 657.32 494.24 641.24 466.26 657.6 466.43 690.06 494.57 706.14 522.56 689.77 522.39 657.32"/><polygon class="f" points="456.52 657.32 428.38 641.24 400.39 657.6 400.56 690.06 428.71 706.14 456.69 689.77 456.52 657.32"/><polygon class="f" points="390.66 657.32 362.51 641.24 334.52 657.6 334.69 690.06 362.84 706.14 390.82 689.77 390.66 657.32"/><polygon class="f" points="259.29 577.76 259.12 545.31 230.97 529.23 202.99 545.59 203.16 578.05 231.3 594.13 259.29 577.76"/><polygon class="f" points="718.97 577.76 718.8 545.31 690.65 529.23 662.67 545.59 662.84 578.05 690.98 594.13 718.97 577.76"/><polygon class="f" points="521.96 577.76 521.8 545.31 493.65 529.23 465.66 545.59 465.83 578.05 493.98 594.13 521.96 577.76"/><polygon class="f" points="127.95 577.76 127.78 545.31 99.64 529.23 71.65 545.59 71.82 578.05 99.97 594.13 127.95 577.76"/><polygon class="f" points="62.28 577.76 62.12 545.31 33.97 529.23 5.98 545.59 6.15 578.05 34.3 594.13 62.28 577.76"/><polygon class="f" points="396.95 649.88 424.93 633.51 424.77 601.06 396.62 584.98 368.64 601.35 368.8 633.8 396.95 649.88"/><polygon class="f" points="331.39 649.88 359.37 633.51 359.21 601.06 331.06 584.98 303.08 601.35 303.24 633.8 331.39 649.88"/><polygon class="f" points="134.7 649.88 162.69 633.51 162.52 601.06 134.37 584.98 106.39 601.35 106.56 633.8 134.7 649.88"/><polygon class="f" points="724.76 649.88 752.74 633.51 752.58 601.06 724.43 584.98 696.44 601.35 696.61 633.8 724.76 649.88"/><polygon class="f" points="587.63 577.76 587.47 545.31 559.32 529.23 531.33 545.59 531.5 578.05 559.65 594.13 587.63 577.76"/><polygon class="e" points="236.74 70.76 264.73 87.13 292.87 71.05 293.04 38.59 265.06 22.23 236.91 38.31 236.74 70.76"/><polygon class="e" points="697.82 70.76 725.8 87.13 753.95 71.05 754.12 38.59 726.13 22.23 697.98 38.31 697.82 70.76"/><polygon class="e" points="65.35 127.3 65.52 94.85 37.53 78.48 9.39 94.56 9.22 127.02 37.2 143.39 65.35 127.3"/><polygon class="e" points="271.63 94.56 271.47 127.02 299.45 143.39 327.6 127.3 327.76 94.85 299.78 78.48 271.63 94.56"/><polygon class="e" points="206.07 94.56 205.91 127.02 233.89 143.39 262.04 127.3 262.2 94.85 234.22 78.48 206.07 94.56"/><polygon class="e" points="665 94.56 664.84 127.02 692.82 143.39 720.97 127.3 721.13 94.85 693.15 78.48 665 94.56"/><polygon class="e" points="565.45 150.32 565.29 182.77 593.27 199.14 621.42 183.06 621.58 150.6 593.6 134.24 565.45 150.32"/><polygon class="e" points="434.11 150.32 433.95 182.77 461.93 199.14 490.08 183.06 490.25 150.6 462.26 134.24 434.11 150.32"/><polygon class="e" points="368.45 150.32 368.28 182.77 396.26 199.14 424.41 183.06 424.58 150.6 396.59 134.24 368.45 150.32"/><polygon class="e" points="659.22 538.14 687.21 521.77 687.04 489.32 658.89 473.24 630.91 489.6 631.08 522.06 659.22 538.14"/><polygon class="e" points="395.75 538.14 423.74 521.77 423.57 489.32 395.42 473.24 367.44 489.6 367.6 522.06 395.75 538.14"/><polygon class="e" points="329.88 538.14 357.87 521.77 357.7 489.32 329.55 473.24 301.57 489.6 301.74 522.06 329.88 538.14"/><polygon class="e" points="260.86 465.51 260.69 433.06 232.54 416.98 204.56 433.35 204.72 465.8 232.87 481.88 260.86 465.51"/><polygon class="e" points="195.29 465.51 195.13 433.06 166.98 416.98 139 433.35 139.16 465.8 167.31 481.88 195.29 465.51"/><polygon class="e" points="654.23 465.51 654.06 433.06 625.91 416.98 597.93 433.35 598.09 465.8 626.24 481.88 654.23 465.51"/><polygon class="e" points="395.36 426.13 423.34 409.76 423.17 377.31 395.02 361.23 367.04 377.59 367.21 410.05 395.36 426.13"/><polygon class="e" points="329.69 426.13 357.67 409.76 357.5 377.31 329.36 361.23 301.37 377.59 301.54 410.05 329.69 426.13"/><polygon class="e" points="751.52 377.31 723.37 361.23 695.38 377.59 695.55 410.05 723.7 426.13 751.68 409.76 751.52 377.31"/><polygon class="e" points="259.09 352.77 258.92 320.32 230.77 304.24 202.79 320.6 202.95 353.06 231.1 369.14 259.09 352.77"/><polygon class="e" points="720.16 352.77 720 320.32 691.85 304.24 663.86 320.6 664.03 353.06 692.18 369.14 720.16 352.77"/><polygon class="e" points="237.51 264.35 237.68 296.8 265.83 312.88 293.81 296.51 293.65 264.06 265.5 247.98 237.51 264.35"/><polygon class="e" points="171.95 264.35 172.12 296.8 200.27 312.88 228.25 296.51 228.08 264.06 199.94 247.98 171.95 264.35"/><polygon class="e" points="630.88 264.35 631.05 296.8 659.2 312.88 687.18 296.51 687.02 264.06 658.87 247.98 630.88 264.35"/><polygon class="e" points="427.98 192.23 400 208.59 400.16 241.05 428.31 257.13 456.29 240.76 456.13 208.31 427.98 192.23"/><polygon class="e" points="362.31 192.23 334.33 208.59 334.49 241.05 362.64 257.13 390.62 240.76 390.46 208.31 362.31 192.23"/><polygon class="e" points="258.92 657.32 230.77 641.24 202.79 657.6 202.95 690.06 231.1 706.14 259.09 689.77 258.92 657.32"/><polygon class="e" points="720 657.32 691.85 641.24 663.86 657.6 664.03 690.06 692.18 706.14 720.16 689.77 720 657.32"/><polygon class="e" points="265.83 649.88 293.81 633.51 293.65 601.06 265.5 584.98 237.51 601.35 237.68 633.8 265.83 649.88"/><polygon class="e" points="200.27 649.88 228.25 633.51 228.08 601.06 199.94 584.98 171.95 601.35 172.12 633.8 200.27 649.88"/><polygon class="e" points="659.2 649.88 687.18 633.51 687.02 601.06 658.87 584.98 630.88 601.35 631.05 633.8 659.2 649.88"/><polygon class="e" points="456.29 577.76 456.13 545.31 427.98 529.23 400 545.59 400.16 578.05 428.31 594.13 456.29 577.76"/><polygon class="e" points="390.62 577.76 390.46 545.31 362.31 529.23 334.33 545.59 334.49 578.05 362.64 594.13 390.62 577.76"/><polygon class="d" points="631.95 70.76 659.93 87.13 688.08 71.05 688.25 38.59 660.26 22.23 632.12 38.31 631.95 70.76"/><polygon class="d" points="170.87 70.76 198.86 87.13 227.01 71.05 227.17 38.59 199.19 22.23 171.04 38.31 170.87 70.76"/><polygon class="d" points="302.61 70.76 330.59 87.13 358.74 71.05 358.91 38.59 330.92 22.23 302.78 38.31 302.61 70.76"/><polygon class="d" points="566.08 70.76 594.07 87.13 622.21 71.05 622.38 38.59 594.4 22.23 566.25 38.31 566.08 70.76"/><polygon class="d" points="237.11 150.32 236.94 182.77 264.93 199.14 293.08 183.06 293.24 150.6 265.26 134.24 237.11 150.32"/><polygon class="d" points="171.44 150.32 171.27 182.77 199.26 199.14 227.41 183.06 227.57 150.6 199.59 134.24 171.44 150.32"/><polygon class="d" points="302.78 150.32 302.61 182.77 330.6 199.14 358.74 183.06 358.91 150.6 330.93 134.24 302.78 150.32"/><polygon class="d" points="533.88 94.56 533.71 127.02 561.7 143.39 589.85 127.3 590.01 94.85 562.03 78.48 533.88 94.56"/><polygon class="d" points="468.32 94.56 468.15 127.02 496.14 143.39 524.28 127.3 524.45 94.85 496.47 78.48 468.32 94.56"/><polygon class="d" points="599.44 94.56 599.28 127.02 627.26 143.39 655.41 127.3 655.57 94.85 627.59 78.48 599.44 94.56"/><polygon class="d" points="74.95 94.56 74.78 127.02 102.77 143.39 130.91 127.3 131.08 94.85 103.1 78.48 74.95 94.56"/><polygon class="d" points="631.12 150.32 630.96 182.77 658.94 199.14 687.09 183.06 687.25 150.6 659.27 134.24 631.12 150.32"/><polygon class="d" points="593.36 538.14 621.34 521.77 621.17 489.32 593.02 473.24 565.04 489.6 565.21 522.06 593.36 538.14"/><polygon class="d" points="198.15 538.14 226.13 521.77 225.97 489.32 197.82 473.24 169.83 489.6 170 522.06 198.15 538.14"/><polygon class="d" points="132.28 538.14 160.26 521.77 160.1 489.32 131.95 473.24 103.97 489.6 104.13 522.06 132.28 538.14"/><polygon class="d" points="264.02 538.14 292 521.77 291.83 489.32 263.69 473.24 235.7 489.6 235.87 522.06 264.02 538.14"/><polygon class="d" points="198.35 426.13 226.33 409.76 226.17 377.31 198.02 361.23 170.04 377.59 170.2 410.05 198.35 426.13"/><polygon class="d" points="104.37 377.59 104.53 410.05 132.68 426.13 160.66 409.76 160.5 377.31 132.35 361.23 104.37 377.59"/><polygon class="d" points="264.02 426.13 292 409.76 291.84 377.31 263.69 361.23 235.7 377.59 235.87 410.05 264.02 426.13"/><polygon class="d" points="523.1 465.51 522.94 433.06 494.79 416.98 466.81 433.35 466.97 465.8 495.12 481.88 523.1 465.51"/><polygon class="d" points="457.54 465.51 457.38 433.06 429.23 416.98 401.24 433.35 401.41 465.8 429.56 481.88 457.54 465.51"/><polygon class="d" points="588.66 465.51 588.5 433.06 560.35 416.98 532.37 433.35 532.53 465.8 560.68 481.88 588.66 465.51"/><polygon class="d" points="64.17 465.51 64.01 433.06 35.86 416.98 7.87 433.35 8.04 465.8 36.19 481.88 64.17 465.51"/><polygon class="d" points="526.69 426.13 554.68 409.76 554.51 377.31 526.36 361.23 498.38 377.59 498.54 410.05 526.69 426.13"/><polygon class="d" points="592.36 426.13 620.34 409.76 620.18 377.31 592.03 361.23 564.05 377.59 564.21 410.05 592.36 426.13"/><polygon class="d" points="654.29 352.77 654.13 320.32 625.98 304.24 598 320.6 598.16 353.06 626.31 369.14 654.29 352.77"/><polygon class="d" points="193.22 352.77 193.05 320.32 164.9 304.24 136.92 320.6 137.09 353.06 165.23 369.14 193.22 352.77"/><polygon class="d" points="324.95 352.77 324.79 320.32 296.64 304.24 268.66 320.6 268.82 353.06 296.97 369.14 324.95 352.77"/><polygon class="d" points="588.43 352.77 588.26 320.32 560.11 304.24 532.13 320.6 532.29 353.06 560.44 369.14 588.43 352.77"/><polygon class="d" points="165.3 192.23 137.32 208.59 137.49 241.05 165.64 257.13 193.62 240.76 193.45 208.31 165.3 192.23"/><polygon class="d" points="296.64 192.23 268.66 208.59 268.82 241.05 296.97 257.13 324.96 240.76 324.79 208.31 296.64 192.23"/><polygon class="d" points="499.76 264.35 499.93 296.8 528.07 312.88 556.06 296.51 555.89 264.06 527.74 247.98 499.76 264.35"/><polygon class="d" points="434.2 264.35 434.36 296.8 462.51 312.88 490.5 296.51 490.33 264.06 462.18 247.98 434.2 264.35"/><polygon class="d" points="565.32 264.35 565.49 296.8 593.64 312.88 621.62 296.51 621.45 264.06 593.3 247.98 565.32 264.35"/><polygon class="d" points="40.99 296.8 69.14 312.88 97.13 296.51 96.96 264.06 68.81 247.98 40.83 264.35 40.99 296.8"/><polygon class="d" points="624.99 192.23 597 208.59 597.17 241.05 625.32 257.13 653.3 240.76 653.13 208.31 624.99 192.23"/><polygon class="d" points="654.13 657.32 625.98 641.24 598 657.6 598.16 690.06 626.31 706.14 654.29 689.77 654.13 657.32"/><polygon class="d" points="193.05 657.32 164.9 641.24 136.92 657.6 137.09 690.06 165.23 706.14 193.22 689.77 193.05 657.32"/><polygon class="d" points="324.79 657.32 296.64 641.24 268.66 657.6 268.82 690.06 296.97 706.14 324.95 689.77 324.79 657.32"/><polygon class="d" points="588.26 657.32 560.11 641.24 532.13 657.6 532.29 690.06 560.44 706.14 588.43 689.77 588.26 657.32"/><polygon class="d" points="193.62 577.76 193.45 545.31 165.3 529.23 137.32 545.59 137.49 578.05 165.64 594.13 193.62 577.76"/><polygon class="d" points="324.96 577.76 324.79 545.31 296.64 529.23 268.66 545.59 268.82 578.05 296.97 594.13 324.96 577.76"/><polygon class="d" points="528.07 649.88 556.06 633.51 555.89 601.06 527.74 584.98 499.76 601.35 499.93 633.8 528.07 649.88"/><polygon class="d" points="462.51 649.88 490.5 633.51 490.33 601.06 462.18 584.98 434.2 601.35 434.36 633.8 462.51 649.88"/><polygon class="d" points="593.64 649.88 621.62 633.51 621.45 601.06 593.3 584.98 565.32 601.35 565.49 633.8 593.64 649.88"/><polygon class="d" points="40.99 633.8 69.14 649.88 97.13 633.51 96.96 601.06 68.81 584.98 40.83 601.35 40.99 633.8"/><polygon class="d" points="653.3 577.76 653.13 545.31 624.99 529.23 597 545.59 597.17 578.05 625.32 594.13 653.3 577.76"/></g><polygon class="f" points="129.18 -18.7 101.03 -34.78 73.05 -18.41 73.21 14.04 101.36 30.12 129.34 13.76 129.18 -18.7"/><polygon class="f" points="63.31 -18.7 35.16 -34.78 7.18 -18.41 7.34 14.04 35.49 30.12 63.48 13.76 63.31 -18.7"/><polygon class="f" points="524.39 -18.7 496.24 -34.78 468.25 -18.41 468.42 14.04 496.57 30.12 524.55 13.76 524.39 -18.7"/><polygon class="f" points="458.52 -18.7 430.37 -34.78 402.39 -18.41 402.55 14.04 430.7 30.12 458.68 13.76 458.52 -18.7"/><polygon class="f" points="392.65 -18.7 364.5 -34.78 336.52 -18.41 336.68 14.04 364.83 30.12 392.81 13.76 392.65 -18.7"/><polygon class="e" points="260.91 -18.7 232.76 -34.78 204.78 -18.41 204.95 14.04 233.1 30.12 261.08 13.76 260.91 -18.7"/><polygon class="e" points="721.99 -18.7 693.84 -34.78 665.86 -18.41 666.02 14.04 694.17 30.12 722.15 13.76 721.99 -18.7"/><polygon class="d" points="656.12 -18.7 627.97 -34.78 599.99 -18.41 600.15 14.04 628.3 30.12 656.29 13.76 656.12 -18.7"/><polygon class="d" points="195.05 -18.7 166.9 -34.78 138.91 -18.41 139.08 14.04 167.23 30.12 195.21 13.76 195.05 -18.7"/><polygon class="d" points="326.78 -18.7 298.63 -34.78 270.65 -18.41 270.81 14.04 298.96 30.12 326.95 13.76 326.78 -18.7"/><polygon class="d" points="590.25 -18.7 562.1 -34.78 534.12 -18.41 534.29 14.04 562.44 30.12 590.42 13.76 590.25 -18.7"/><g><polygon class="f" points="28.32 149.22 .33 132.85 -27.82 148.94 -27.98 181.39 0 197.76 28.15 181.68 28.32 149.22"/><polygon class="f" points=".49 536.76 28.47 520.39 28.31 487.94 .16 471.85 -27.83 488.22 -27.66 520.68 .49 536.76"/><polygon class="f" points="27.97 262.68 -.18 246.6 -28.16 262.97 -27.99 295.42 .15 311.5 28.14 295.13 27.97 262.68"/><polygon class="f" points=".15 648.5 28.14 632.13 27.97 599.68 -.18 583.6 -28.16 599.97 -27.99 632.42 .15 648.5"/><polygon class="e" points="-26.79 69.38 1.2 85.75 29.35 69.67 29.51 37.21 1.53 20.84 -26.62 36.93 -26.79 69.38"/><polygon class="e" points="26.91 375.93 -1.24 359.84 -29.22 376.21 -29.05 408.67 -.91 424.75 27.08 408.38 26.91 375.93"/></g></g></g></svg>